<?xml version="1.0" encoding="UTF-8" standalone="no"?>
<!DOCTYPE svg PUBLIC "-//W3C//DTD SVG 1.1//EN" "http://www.w3.org/Graphics/SVG/1.1/DTD/svg11.dtd">
<svg width="100%" height="100%" viewBox="0 0 18 18" version="1.1" xmlns="http://www.w3.org/2000/svg" xmlns:xlink="http://www.w3.org/1999/xlink" xml:space="preserve" xmlns:serif="http://www.serif.com/" style="fill-rule:evenodd;clip-rule:evenodd;stroke-linejoin:round;stroke-miterlimit:2;">
    <g transform="matrix(1,0,0,1,1,1)">
        <path d="M13.928,2.619C15.226,4.042 16.019,5.934 16.019,8.01C16.019,12.425 12.434,16.01 8.019,16.01C3.604,16.01 0.019,12.425 0.019,8.01C0.019,3.595 3.604,0.01 8.019,0.01C9.463,0.01 10.818,0.394 11.989,1.064C11.415,1.27 10.805,1.332 10.185,1.352L10.181,1.351C9.283,1.062 8.332,0.954 7.392,1.038C6.516,1.116 5.656,1.361 4.871,1.757C4.006,2.194 3.235,2.811 2.618,3.558C2.069,4.223 1.645,4.989 1.373,5.807C1.152,6.473 1.033,7.173 1.02,7.875C1.007,8.552 1.092,9.231 1.273,9.884C1.478,10.622 1.806,11.325 2.239,11.958C2.722,12.663 3.334,13.279 4.037,13.766C4.809,14.302 5.688,14.679 6.609,14.868C7.479,15.046 8.383,15.057 9.257,14.901C9.892,14.787 10.511,14.585 11.091,14.301C11.911,13.899 12.65,13.336 13.256,12.653C13.827,12.01 14.278,11.262 14.579,10.456C14.834,9.774 14.98,9.053 15.012,8.325C15.046,7.545 14.952,6.76 14.729,6.012C14.474,5.156 14.053,4.357 13.499,3.656L13.477,3.63C13.676,3.36 13.832,3.029 13.928,2.619Z" style="fill:rgb(219,22,47);"/>
        <g transform="matrix(0.110694,0,0,0.110694,4.73214,6.20276)">
            <path d="M10.063,17.144C18.921,-4.453 81.889,24.724 78.313,-16.286C55.715,4.017 9.855,-23.194 10.063,17.14" style="fill:rgb(219,22,47);"/>
        </g>
        <g transform="matrix(0.110694,0,0,0.110694,3.73214,6.24666)">
            <path d="M3.661,23.628C2.915,24.703 1.998,25.8 2.42,27.35C3.39,30.919 8.127,29.978 7.37,33.127C7.168,33.967 6.769,34.536 7.285,35.246C7.685,35.793 8.473,35.983 8.929,36.426C7.187,37.774 7.874,38.894 9.474,40.227C10.023,40.686 10.146,40.871 9.862,41.751C8.927,44.659 9.313,46.378 11.035,47.995C12.166,49.055 16.597,49.238 21.766,49.605C41.265,50.99 29.372,70.957 17.756,65.963C-4,56.609 -18.261,34.067 -15.059,9.149C-12.428,-11.328 1.35,-28.839 22.191,-35.707C43.18,-42.624 68.259,-32.338 87.119,-47.398C92.822,8.619 16.608,-44.379 7.832,8.999C7.448,11.331 8.135,11.299 8.665,13.084C9.218,14.951 8.689,15.767 7.85,17.142C6.463,19.415 5.116,21.525 3.661,23.628" style="fill:rgb(219,22,47);"/>
        </g>
    </g>
</svg>
